<svg width="28" height="28" viewBox="0 0 28 28" fill="none" xmlns="http://www.w3.org/2000/svg">
<path d="M2.055 15.12C1.775 15.12 1.56 15.04 1.41 14.88C1.26 14.72 1.185 14.5 1.185 14.22V5.205C1.185 4.915 1.265 4.695 1.425 4.545C1.585 4.385 1.805 4.305 2.085 4.305C2.335 4.305 2.53 4.355 2.67 4.455C2.82 4.545 2.955 4.705 3.075 4.935L6.78 11.79H6.3L10.005 4.935C10.125 4.705 10.255 4.545 10.395 4.455C10.535 4.355 10.73 4.305 10.98 4.305C11.26 4.305 11.475 4.385 11.625 4.545C11.775 4.695 11.85 4.915 11.85 5.205V14.22C11.85 14.5 11.775 14.72 11.625 14.88C11.485 15.04 11.27 15.12 10.98 15.12C10.7 15.12 10.485 15.04 10.335 14.88C10.185 14.72 10.11 14.5 10.11 14.22V7.275H10.44L7.29 13.02C7.19 13.19 7.085 13.315 6.975 13.395C6.865 13.475 6.715 13.515 6.525 13.515C6.335 13.515 6.18 13.475 6.06 13.395C5.94 13.305 5.835 13.18 5.745 13.02L2.565 7.26H2.925V14.22C2.925 14.5 2.85 14.72 2.7 14.88C2.56 15.04 2.345 15.12 2.055 15.12Z" fill="#292D32"/>
<path d="M16 8.5H25" stroke="#292D32" stroke-width="1.5" stroke-linecap="round" stroke-linejoin="round"/>
<path d="M16 13.5H25" stroke="#292D32" stroke-width="1.5" stroke-linecap="round" stroke-linejoin="round"/>
<path d="M7 18.5H25" stroke="#292D32" stroke-width="1.5" stroke-linecap="round" stroke-linejoin="round"/>
<path d="M7 23.5H25" stroke="#292D32" stroke-width="1.5" stroke-linecap="round" stroke-linejoin="round"/>
</svg>
